<svg width="600" height="64" viewBox="0 0 600 64" fill="none" xmlns="http://www.w3.org/2000/svg">
  <!-- Logo Mark Group -->
  <g id="logo-mark">
    <path fill-rule="evenodd" clip-rule="evenodd" d="M0.410969 50.172C-0.215081 49.4087 -0.0781301 48.2852 0.691665 47.6671L7.98396 41.8121C8.62005 41.3013 9.55003 41.4167 10.0687 42.0463C15.0218 48.0597 20.2779 50.8436 26.0956 50.8436C31.8731 50.8436 36.9858 48.0991 41.7221 42.1525C42.2304 41.5142 43.1581 41.3822 43.8033 41.8816L51.1953 47.6021C51.9758 48.2062 52.1331 49.3269 51.5202 50.1005C44.5173 58.9399 35.9433 63.5972 26.0956 63.5972C16.2765 63.5972 7.62597 58.969 0.410969 50.172Z" fill="url(#paint0_linear)"/>
    <path fill-rule="evenodd" clip-rule="evenodd" d="M26.4486 17.1675C26.1737 16.9241 25.7605 16.924 25.4854 17.1672L9.62883 31.1882C9.02267 31.7242 8.09549 31.662 7.56638 31.0498L1.38183 23.8944C0.860091 23.2907 0.922501 22.3793 1.52165 21.8525L25.0071 1.19963C25.5561 0.716868 26.3782 0.716976 26.927 1.19988L50.4177 21.8683C51.0172 22.3958 51.0789 23.3081 50.5559 23.9115L44.3563 31.0634C43.8266 31.6745 42.9 31.7357 42.2945 31.1995L26.4486 17.1675Z" fill="url(#paint1_linear)"/>
  </g>
  
  <!-- Brand Text: ClickUp -->
  <text x="70" y="41" font-family="Inter, sans-serif" font-weight="700" font-size="32" fill="#161B3D">ClickUp</text>

  <!-- Regional Tag: LATAM (Bold Technical Signature) -->
  <text x="118" y="58" font-family="Montserrat, sans-serif" font-weight="900" font-size="11" letter-spacing="0.15em">
    <tspan fill="#FFB300">L</tspan>
    <tspan fill="#2ECC71">A</tspan>
    <tspan fill="#00B3FF">T</tspan>
    <tspan fill="#FF007F">A</tspan>
    <tspan fill="#7B68EE">M</tspan>
  </text>
  
  <!-- Divider -->
  <rect x="220" y="16" width="1" height="32" fill="#E0E0E0"/>
  
  <!-- Sub-Brand Text: ACCELERATE -->
  <text x="240" y="41" font-family="Montserrat, sans-serif" font-weight="800" font-size="28" fill="url(#paint_accelerate)">ACCELERATE</text>
  
  <defs>
    <linearGradient id="paint0_linear" x1="-0.692993" y1="32.1384" x2="52.5992" y2="32.1384" gradientUnits="userSpaceOnUse">
      <stop offset="0.22" stop-color="#6647F0"/>
      <stop offset="0.79" stop-color="#0091FF"/>
    </linearGradient>
    <linearGradient id="paint1_linear" x1="-0.692994" y1="31.621" x2="52.5992" y2="31.621" gradientUnits="userSpaceOnUse">
      <stop offset="0" stop-color="#FF02F0"/>
      <stop offset="0.77" stop-color="#F76808"/>
    </linearGradient>
    <linearGradient id="paint_accelerate" x1="240" y1="0" x2="450" y2="0" gradientUnits="userSpaceOnUse">
      <stop offset="0" stop-color="#FF02F0"/>
      <stop offset="0.77" stop-color="#F76808"/>
    </linearGradient>
  </defs>
</svg>